<mxfile host="65bd71144e">
    <diagram id="1Q2PKYZs-q4BRkiAlhw2" name="Página-1">
        <mxGraphModel dx="1026" dy="664" grid="1" gridSize="10" guides="1" tooltips="1" connect="1" arrows="1" fold="1" page="1" pageScale="1" pageWidth="827" pageHeight="1169" math="0" shadow="0">
            <root>
                <mxCell id="0"/>
                <mxCell id="1" parent="0"/>
                <mxCell id="2" value="Solicitação de Transporte" style="rounded=0;whiteSpace=wrap;html=1;" parent="1" vertex="1">
                    <mxGeometry x="170" y="170" width="90" height="60" as="geometry"/>
                </mxCell>
                <mxCell id="3" value="Rota" style="rounded=0;whiteSpace=wrap;html=1;" parent="1" vertex="1">
                    <mxGeometry x="430" y="130" width="90" height="60" as="geometry"/>
                </mxCell>
                <mxCell id="4" value="Transporte" style="rounded=0;whiteSpace=wrap;html=1;" parent="1" vertex="1">
                    <mxGeometry x="380" y="280" width="90" height="60" as="geometry"/>
                </mxCell>
                <mxCell id="7" value="Faturamento" style="rounded=0;whiteSpace=wrap;html=1;" parent="1" vertex="1">
                    <mxGeometry x="520" y="400" width="90" height="60" as="geometry"/>
                </mxCell>
                <mxCell id="8" value="" style="endArrow=classic;html=1;exitX=1;exitY=0.5;exitDx=0;exitDy=0;entryX=0;entryY=0.5;entryDx=0;entryDy=0;" parent="1" source="2" target="4" edge="1">
                    <mxGeometry relative="1" as="geometry">
                        <mxPoint x="290" y="270" as="sourcePoint"/>
                        <mxPoint x="450" y="270" as="targetPoint"/>
                        <Array as="points">
                            <mxPoint x="330" y="200"/>
                            <mxPoint x="330" y="310"/>
                        </Array>
                    </mxGeometry>
                </mxCell>
                <mxCell id="9" value="Cliente Fornecedor" style="edgeLabel;resizable=0;html=1;;align=center;verticalAlign=middle;" parent="8" connectable="0" vertex="1">
                    <mxGeometry relative="1" as="geometry"/>
                </mxCell>
                <mxCell id="10" value="U" style="edgeLabel;resizable=0;html=1;;align=left;verticalAlign=bottom;" parent="8" connectable="0" vertex="1">
                    <mxGeometry x="-1" relative="1" as="geometry"/>
                </mxCell>
                <mxCell id="11" value="D" style="edgeLabel;resizable=0;html=1;;align=right;verticalAlign=bottom;" parent="8" connectable="0" vertex="1">
                    <mxGeometry x="1" relative="1" as="geometry"/>
                </mxCell>
                <mxCell id="12" value="" style="endArrow=classic;html=1;exitX=0.5;exitY=1;exitDx=0;exitDy=0;entryX=0.5;entryY=0;entryDx=0;entryDy=0;" parent="1" source="3" target="4" edge="1">
                    <mxGeometry relative="1" as="geometry">
                        <mxPoint x="470" y="220" as="sourcePoint"/>
                        <mxPoint x="590" y="330" as="targetPoint"/>
                        <Array as="points">
                            <mxPoint x="475" y="220"/>
                            <mxPoint x="425" y="220"/>
                        </Array>
                    </mxGeometry>
                </mxCell>
                <mxCell id="13" value="Cliente Fornecedor" style="edgeLabel;resizable=0;html=1;;align=center;verticalAlign=middle;" parent="12" connectable="0" vertex="1">
                    <mxGeometry relative="1" as="geometry"/>
                </mxCell>
                <mxCell id="14" value="U" style="edgeLabel;resizable=0;html=1;;align=left;verticalAlign=bottom;" parent="12" connectable="0" vertex="1">
                    <mxGeometry x="-1" relative="1" as="geometry"/>
                </mxCell>
                <mxCell id="15" value="D" style="edgeLabel;resizable=0;html=1;;align=right;verticalAlign=bottom;" parent="12" connectable="0" vertex="1">
                    <mxGeometry x="1" relative="1" as="geometry"/>
                </mxCell>
                <mxCell id="16" value="" style="endArrow=classic;html=1;exitX=1;exitY=0.75;exitDx=0;exitDy=0;entryX=0.5;entryY=0;entryDx=0;entryDy=0;" parent="1" source="4" target="7" edge="1">
                    <mxGeometry relative="1" as="geometry">
                        <mxPoint x="280" y="220" as="sourcePoint"/>
                        <mxPoint x="400" y="330" as="targetPoint"/>
                        <Array as="points">
                            <mxPoint x="565" y="325"/>
                        </Array>
                    </mxGeometry>
                </mxCell>
                <mxCell id="17" value="Cliente Fornecedor" style="edgeLabel;resizable=0;html=1;;align=center;verticalAlign=middle;" parent="16" connectable="0" vertex="1">
                    <mxGeometry relative="1" as="geometry"/>
                </mxCell>
                <mxCell id="18" value="U" style="edgeLabel;resizable=0;html=1;;align=left;verticalAlign=bottom;" parent="16" connectable="0" vertex="1">
                    <mxGeometry x="-1" relative="1" as="geometry"/>
                </mxCell>
                <mxCell id="19" value="D" style="edgeLabel;resizable=0;html=1;;align=right;verticalAlign=bottom;" parent="16" connectable="0" vertex="1">
                    <mxGeometry x="1" relative="1" as="geometry"/>
                </mxCell>
            </root>
        </mxGraphModel>
    </diagram>
    <diagram id="3N3w8qUJlrUppfgi2Mow" name="UML">
        <mxGraphModel dx="1026" dy="1833" grid="1" gridSize="10" guides="1" tooltips="1" connect="1" arrows="1" fold="1" page="1" pageScale="1" pageWidth="827" pageHeight="1169" math="0" shadow="0">
            <root>
                <mxCell id="0"/>
                <mxCell id="1" parent="0"/>
                <mxCell id="UjlTtW-tnCA7wsaqbduQ-1" value="Solicitação de Transporte" style="rounded=0;whiteSpace=wrap;html=1;" vertex="1" parent="1">
                    <mxGeometry x="170" y="170" width="90" height="60" as="geometry"/>
                </mxCell>
                <mxCell id="UjlTtW-tnCA7wsaqbduQ-2" value="Rota" style="rounded=0;whiteSpace=wrap;html=1;" vertex="1" parent="1">
                    <mxGeometry x="430" y="130" width="90" height="60" as="geometry"/>
                </mxCell>
                <mxCell id="UjlTtW-tnCA7wsaqbduQ-3" value="Transporte" style="rounded=0;whiteSpace=wrap;html=1;" vertex="1" parent="1">
                    <mxGeometry x="380" y="280" width="90" height="60" as="geometry"/>
                </mxCell>
                <mxCell id="UjlTtW-tnCA7wsaqbduQ-4" value="Relatório" style="rounded=0;whiteSpace=wrap;html=1;" vertex="1" parent="1">
                    <mxGeometry x="650" y="240" width="90" height="60" as="geometry"/>
                </mxCell>
                <mxCell id="UjlTtW-tnCA7wsaqbduQ-5" value="Faturamento" style="rounded=0;whiteSpace=wrap;html=1;" vertex="1" parent="1">
                    <mxGeometry x="520" y="400" width="90" height="60" as="geometry"/>
                </mxCell>
                <mxCell id="UjlTtW-tnCA7wsaqbduQ-6" value="" style="endArrow=classic;html=1;exitX=1;exitY=0.5;exitDx=0;exitDy=0;entryX=0;entryY=0.5;entryDx=0;entryDy=0;" edge="1" parent="1" source="UjlTtW-tnCA7wsaqbduQ-1" target="UjlTtW-tnCA7wsaqbduQ-3">
                    <mxGeometry relative="1" as="geometry">
                        <mxPoint x="290" y="270" as="sourcePoint"/>
                        <mxPoint x="450" y="270" as="targetPoint"/>
                        <Array as="points">
                            <mxPoint x="330" y="200"/>
                            <mxPoint x="330" y="310"/>
                        </Array>
                    </mxGeometry>
                </mxCell>
                <mxCell id="UjlTtW-tnCA7wsaqbduQ-7" value="Cliente Fornecedor" style="edgeLabel;resizable=0;html=1;;align=center;verticalAlign=middle;" connectable="0" vertex="1" parent="UjlTtW-tnCA7wsaqbduQ-6">
                    <mxGeometry relative="1" as="geometry"/>
                </mxCell>
                <mxCell id="UjlTtW-tnCA7wsaqbduQ-8" value="U" style="edgeLabel;resizable=0;html=1;;align=left;verticalAlign=bottom;" connectable="0" vertex="1" parent="UjlTtW-tnCA7wsaqbduQ-6">
                    <mxGeometry x="-1" relative="1" as="geometry"/>
                </mxCell>
                <mxCell id="UjlTtW-tnCA7wsaqbduQ-9" value="D" style="edgeLabel;resizable=0;html=1;;align=right;verticalAlign=bottom;" connectable="0" vertex="1" parent="UjlTtW-tnCA7wsaqbduQ-6">
                    <mxGeometry x="1" relative="1" as="geometry"/>
                </mxCell>
                <mxCell id="UjlTtW-tnCA7wsaqbduQ-10" value="" style="endArrow=classic;html=1;exitX=0.5;exitY=1;exitDx=0;exitDy=0;entryX=0.5;entryY=0;entryDx=0;entryDy=0;" edge="1" parent="1" source="UjlTtW-tnCA7wsaqbduQ-2" target="UjlTtW-tnCA7wsaqbduQ-3">
                    <mxGeometry relative="1" as="geometry">
                        <mxPoint x="470" y="220" as="sourcePoint"/>
                        <mxPoint x="590" y="330" as="targetPoint"/>
                        <Array as="points">
                            <mxPoint x="475" y="220"/>
                            <mxPoint x="425" y="220"/>
                        </Array>
                    </mxGeometry>
                </mxCell>
                <mxCell id="UjlTtW-tnCA7wsaqbduQ-11" value="Cliente Fornecedor" style="edgeLabel;resizable=0;html=1;;align=center;verticalAlign=middle;" connectable="0" vertex="1" parent="UjlTtW-tnCA7wsaqbduQ-10">
                    <mxGeometry relative="1" as="geometry"/>
                </mxCell>
                <mxCell id="UjlTtW-tnCA7wsaqbduQ-12" value="U" style="edgeLabel;resizable=0;html=1;;align=left;verticalAlign=bottom;" connectable="0" vertex="1" parent="UjlTtW-tnCA7wsaqbduQ-10">
                    <mxGeometry x="-1" relative="1" as="geometry"/>
                </mxCell>
                <mxCell id="UjlTtW-tnCA7wsaqbduQ-13" value="D" style="edgeLabel;resizable=0;html=1;;align=right;verticalAlign=bottom;" connectable="0" vertex="1" parent="UjlTtW-tnCA7wsaqbduQ-10">
                    <mxGeometry x="1" relative="1" as="geometry"/>
                </mxCell>
                <mxCell id="UjlTtW-tnCA7wsaqbduQ-14" value="" style="endArrow=classic;html=1;exitX=1;exitY=0.75;exitDx=0;exitDy=0;entryX=0.5;entryY=0;entryDx=0;entryDy=0;" edge="1" parent="1" source="UjlTtW-tnCA7wsaqbduQ-3" target="UjlTtW-tnCA7wsaqbduQ-5">
                    <mxGeometry relative="1" as="geometry">
                        <mxPoint x="280" y="220" as="sourcePoint"/>
                        <mxPoint x="400" y="330" as="targetPoint"/>
                        <Array as="points">
                            <mxPoint x="565" y="325"/>
                        </Array>
                    </mxGeometry>
                </mxCell>
                <mxCell id="UjlTtW-tnCA7wsaqbduQ-15" value="Cliente Fornecedor" style="edgeLabel;resizable=0;html=1;;align=center;verticalAlign=middle;" connectable="0" vertex="1" parent="UjlTtW-tnCA7wsaqbduQ-14">
                    <mxGeometry relative="1" as="geometry"/>
                </mxCell>
                <mxCell id="UjlTtW-tnCA7wsaqbduQ-16" value="U" style="edgeLabel;resizable=0;html=1;;align=left;verticalAlign=bottom;" connectable="0" vertex="1" parent="UjlTtW-tnCA7wsaqbduQ-14">
                    <mxGeometry x="-1" relative="1" as="geometry"/>
                </mxCell>
                <mxCell id="UjlTtW-tnCA7wsaqbduQ-17" value="D" style="edgeLabel;resizable=0;html=1;;align=right;verticalAlign=bottom;" connectable="0" vertex="1" parent="UjlTtW-tnCA7wsaqbduQ-14">
                    <mxGeometry x="1" relative="1" as="geometry"/>
                </mxCell>
                <mxCell id="UjlTtW-tnCA7wsaqbduQ-18" value="" style="endArrow=classic;html=1;exitX=1;exitY=0.25;exitDx=0;exitDy=0;entryX=0;entryY=0.5;entryDx=0;entryDy=0;" edge="1" parent="1" source="UjlTtW-tnCA7wsaqbduQ-3" target="UjlTtW-tnCA7wsaqbduQ-4">
                    <mxGeometry relative="1" as="geometry">
                        <mxPoint x="290" y="230" as="sourcePoint"/>
                        <mxPoint x="410" y="340" as="targetPoint"/>
                        <Array as="points">
                            <mxPoint x="560" y="295"/>
                            <mxPoint x="560" y="270"/>
                        </Array>
                    </mxGeometry>
                </mxCell>
                <mxCell id="UjlTtW-tnCA7wsaqbduQ-19" value="Conformista" style="edgeLabel;resizable=0;html=1;;align=center;verticalAlign=middle;" connectable="0" vertex="1" parent="UjlTtW-tnCA7wsaqbduQ-18">
                    <mxGeometry relative="1" as="geometry"/>
                </mxCell>
                <mxCell id="UjlTtW-tnCA7wsaqbduQ-20" value="U" style="edgeLabel;resizable=0;html=1;;align=left;verticalAlign=bottom;" connectable="0" vertex="1" parent="UjlTtW-tnCA7wsaqbduQ-18">
                    <mxGeometry x="-1" relative="1" as="geometry"/>
                </mxCell>
                <mxCell id="UjlTtW-tnCA7wsaqbduQ-21" value="D" style="edgeLabel;resizable=0;html=1;;align=right;verticalAlign=bottom;" connectable="0" vertex="1" parent="UjlTtW-tnCA7wsaqbduQ-18">
                    <mxGeometry x="1" relative="1" as="geometry"/>
                </mxCell>
                <mxCell id="UjlTtW-tnCA7wsaqbduQ-22" value="Cliente:&lt;div&gt;&lt;br&gt;&lt;/div&gt;&lt;div&gt;Razão Social&lt;div&gt;CNPJ&lt;/div&gt;&lt;div&gt;Endereço&lt;/div&gt;&lt;/div&gt;" style="text;html=1;align=center;verticalAlign=middle;whiteSpace=wrap;rounded=0;" vertex="1" parent="1">
                    <mxGeometry x="20" y="90" width="120" height="30" as="geometry"/>
                </mxCell>
                <mxCell id="UjlTtW-tnCA7wsaqbduQ-23" value="Rota&lt;div&gt;&lt;br&gt;&lt;/div&gt;&lt;div&gt;Produto&lt;div&gt;Quantidade&lt;/div&gt;&lt;div&gt;Terminal de Origem&lt;/div&gt;&lt;div&gt;Terminais Intermediarios&lt;/div&gt;&lt;div&gt;Dutos Intermediarios&lt;/div&gt;&lt;div&gt;Terminal de Destino&lt;/div&gt;&lt;div&gt;&lt;div style=&quot;color: rgb(63, 63, 63); scrollbar-color: rgb(226, 226, 226) rgb(251, 251, 251);&quot;&gt;Data Produto Disponivel&lt;/div&gt;&lt;div style=&quot;color: rgb(63, 63, 63); scrollbar-color: rgb(226, 226, 226) rgb(251, 251, 251);&quot;&gt;Data Esperada de Entrega&lt;/div&gt;&lt;/div&gt;&lt;/div&gt;&lt;div&gt;&lt;br&gt;&lt;/div&gt;&lt;div&gt;Calcular Rota&lt;/div&gt;" style="text;html=1;align=center;verticalAlign=middle;whiteSpace=wrap;rounded=0;" vertex="1" parent="1">
                    <mxGeometry x="540" y="-20" width="120" height="110" as="geometry"/>
                </mxCell>
                <mxCell id="UjlTtW-tnCA7wsaqbduQ-24" value="&lt;div&gt;Fatura&lt;/div&gt;&lt;div&gt;&lt;br&gt;&lt;/div&gt;&lt;div&gt;Transporte&lt;/div&gt;&lt;div&gt;Valor&lt;/div&gt;&lt;div&gt;&lt;span style=&quot;color: rgb(63, 63, 63); background-color: transparent;&quot;&gt;Data de Emissão&lt;/span&gt;&lt;/div&gt;&lt;div&gt;&lt;br&gt;&lt;/div&gt;&lt;div&gt;Cálculo da Fatura&lt;/div&gt;" style="text;html=1;align=center;verticalAlign=middle;whiteSpace=wrap;rounded=0;" vertex="1" parent="1">
                    <mxGeometry x="610" y="394" width="120" height="110" as="geometry"/>
                </mxCell>
                <mxCell id="1tR4zai7T0TWAm3sUDk9-2" value="Cliente" style="swimlane;fontStyle=1;align=center;verticalAlign=top;childLayout=stackLayout;horizontal=1;startSize=26;horizontalStack=0;resizeParent=1;resizeParentMax=0;resizeLast=0;collapsible=1;marginBottom=0;whiteSpace=wrap;html=1;" vertex="1" parent="1">
                    <mxGeometry x="930" y="330" width="160" height="86" as="geometry"/>
                </mxCell>
                <mxCell id="1tR4zai7T0TWAm3sUDk9-3" value="+ field: type" style="text;strokeColor=none;fillColor=none;align=left;verticalAlign=top;spacingLeft=4;spacingRight=4;overflow=hidden;rotatable=0;points=[[0,0.5],[1,0.5]];portConstraint=eastwest;whiteSpace=wrap;html=1;" vertex="1" parent="1tR4zai7T0TWAm3sUDk9-2">
                    <mxGeometry y="26" width="160" height="26" as="geometry"/>
                </mxCell>
                <mxCell id="1tR4zai7T0TWAm3sUDk9-4" value="" style="line;strokeWidth=1;fillColor=none;align=left;verticalAlign=middle;spacingTop=-1;spacingLeft=3;spacingRight=3;rotatable=0;labelPosition=right;points=[];portConstraint=eastwest;strokeColor=inherit;" vertex="1" parent="1tR4zai7T0TWAm3sUDk9-2">
                    <mxGeometry y="52" width="160" height="8" as="geometry"/>
                </mxCell>
                <mxCell id="1tR4zai7T0TWAm3sUDk9-5" value="+ method(type): type" style="text;strokeColor=none;fillColor=none;align=left;verticalAlign=top;spacingLeft=4;spacingRight=4;overflow=hidden;rotatable=0;points=[[0,0.5],[1,0.5]];portConstraint=eastwest;whiteSpace=wrap;html=1;" vertex="1" parent="1tR4zai7T0TWAm3sUDk9-2">
                    <mxGeometry y="60" width="160" height="26" as="geometry"/>
                </mxCell>
                <mxCell id="1tR4zai7T0TWAm3sUDk9-6" value="Solicitação de Transporte&lt;div&gt;&lt;br&gt;&lt;/div&gt;&lt;div&gt;Cliente&lt;/div&gt;&lt;div&gt;Produto&lt;/div&gt;&lt;div&gt;Quantidade&lt;/div&gt;&lt;div&gt;Terminal Origem&lt;/div&gt;&lt;div&gt;Terminal Destino&lt;/div&gt;&lt;div&gt;Data Produto Disponivel&lt;/div&gt;&lt;div&gt;Data Esperada de Entrega&lt;/div&gt;" style="text;html=1;align=center;verticalAlign=middle;whiteSpace=wrap;rounded=0;" vertex="1" parent="1">
                    <mxGeometry x="30" y="290" width="120" height="30" as="geometry"/>
                </mxCell>
                <mxCell id="1tR4zai7T0TWAm3sUDk9-7" value="&lt;div&gt;Transporte&lt;/div&gt;&lt;div&gt;&lt;br&gt;&lt;/div&gt;&lt;div&gt;Cliente&lt;/div&gt;&lt;div&gt;&lt;span style=&quot;color: rgb(63, 63, 63); background-color: transparent;&quot;&gt;Rota&lt;/span&gt;&lt;/div&gt;&lt;div&gt;&lt;span style=&quot;color: rgb(63, 63, 63); background-color: transparent;&quot;&gt;Etapa&lt;/span&gt;&lt;/div&gt;" style="text;html=1;align=center;verticalAlign=middle;whiteSpace=wrap;rounded=0;" vertex="1" parent="1">
                    <mxGeometry x="280" y="318" width="120" height="110" as="geometry"/>
                </mxCell>
            </root>
        </mxGraphModel>
    </diagram>
</mxfile>